<svg width="129" height="128" viewBox="0 0 129 128" fill="none" xmlns="http://www.w3.org/2000/svg">
<rect x="0.5" y="0.5" width="127" height="127" fill="url(#paint0_linear_1_18)" stroke="black"/>
<mask id="path-2-outside-1_1_18" maskUnits="userSpaceOnUse" x="4" y="36" width="55" height="56" fill="black">
<rect fill="white" x="4" y="36" width="55" height="56"/>
<path d="M20.8301 91V54.964H4.96814V37.1H58.1751V54.964H42.3901V91H20.8301Z"/>
</mask>
<path d="M20.8301 91V54.964H4.96814V37.1H58.1751V54.964H42.3901V91H20.8301Z" fill="black"/>
<path d="M20.8301 91H20.6301V91.2H20.8301V91ZM20.8301 54.964H21.0301V54.764H20.8301V54.964ZM4.96814 54.964H4.76814V55.164H4.96814V54.964ZM4.96814 37.1V36.9H4.76814V37.1H4.96814ZM58.1751 37.1H58.3751V36.9H58.1751V37.1ZM58.1751 54.964V55.164H58.3751V54.964H58.1751ZM42.3901 54.964V54.764H42.1901V54.964H42.3901ZM42.3901 91V91.2H42.5901V91H42.3901ZM20.8301 91H21.0301V54.964H20.8301H20.6301V91H20.8301ZM20.8301 54.964V54.764H4.96814V54.964V55.164H20.8301V54.964ZM4.96814 54.964H5.16814V37.1H4.96814H4.76814V54.964H4.96814ZM4.96814 37.1V37.3H58.1751V37.1V36.9H4.96814V37.1ZM58.1751 37.1H57.9751V54.964H58.1751H58.3751V37.1H58.1751ZM58.1751 54.964V54.764H42.3901V54.964V55.164H58.1751V54.964ZM42.3901 54.964H42.1901V91H42.3901H42.5901V54.964H42.3901ZM42.3901 91V90.8H20.8301V91V91.2H42.3901V91Z" fill="black" mask="url(#path-2-outside-1_1_18)"/>
<g filter="url(#filter0_d_1_18)">
<path d="M76.7691 99V43H99.1691V80.44H123.809V99H76.7691Z" fill="white"/>
<path d="M76.7691 99H75.7691V100H76.7691V99ZM76.7691 43V42H75.7691V43H76.7691ZM99.1691 43H100.169V42H99.1691V43ZM99.1691 80.44H98.1691V81.44H99.1691V80.44ZM123.809 80.44H124.809V79.44H123.809V80.44ZM123.809 99V100H124.809V99H123.809ZM76.7691 99H77.7691V43H76.7691H75.7691V99H76.7691ZM76.7691 43V44H99.1691V43V42H76.7691V43ZM99.1691 43H98.1691V80.44H99.1691H100.169V43H99.1691ZM99.1691 80.44V81.44H123.809V80.44V79.44H99.1691V80.44ZM123.809 80.44H122.809V99H123.809H124.809V80.44H123.809ZM123.809 99V98H76.7691V99V100H123.809V99Z" fill="black"/>
</g>
<defs>
<filter id="filter0_d_1_18" x="71.7691" y="42" width="57.04" height="66" filterUnits="userSpaceOnUse" color-interpolation-filters="sRGB">
<feFlood flood-opacity="0" result="BackgroundImageFix"/>
<feColorMatrix in="SourceAlpha" type="matrix" values="0 0 0 0 0 0 0 0 0 0 0 0 0 0 0 0 0 0 127 0" result="hardAlpha"/>
<feOffset dy="4"/>
<feGaussianBlur stdDeviation="2"/>
<feComposite in2="hardAlpha" operator="out"/>
<feColorMatrix type="matrix" values="0 0 0 0 0 0 0 0 0 0 0 0 0 0 0 0 0 0 0.25 0"/>
<feBlend mode="normal" in2="BackgroundImageFix" result="effect1_dropShadow_1_18"/>
<feBlend mode="normal" in="SourceGraphic" in2="effect1_dropShadow_1_18" result="shape"/>
</filter>
<linearGradient id="paint0_linear_1_18" x1="4.43476e-09" y1="64" x2="128" y2="64.08" gradientUnits="userSpaceOnUse">
<stop offset="0.5" stop-color="white"/>
<stop offset="0.5" stop-color="#2B6BA8"/>
</linearGradient>
</defs>
</svg>
